<svg version="1.2" xmlns="http://www.w3.org/2000/svg" viewBox="0 0 100 100" width="600" height="600">
	<title>download (1) 1</title>
	<style>
		.s0 { fill: #74d77e } 
		.s1 { fill: #2b9d43 } 
		.s2 { fill: #3bac53 } 
		.s3 { fill: #3bad53 } 
	</style>
	<path class="s0" d="m33.6 32.8c0.7-0.5 1.4-1 2.1-1.4 3.8-2.3 7.6-4.6 11.4-6.8 1.2-0.7 2.5-1.4 4-1.4 1.5 0 2.8 0.5 4 1.2q6.7 3.8 13.2 7.8c2.1 1.3 4.1 2.6 6.1 4.1 1 0.8 1.4 2.1 1.4 3.5 0.1 6.8 0 13.6 0.1 20.4 0 2.1-0.9 3.8-2.5 4.8-3.7 2.5-7.6 4.8-11.5 7.1q0 0.1-0.2 0 0.1-0.5 0.4-0.9c0.6-0.8 1.2-1.6 1.7-2.5 2.2-4 2.4-8.4 2.2-12.9 0-2.7 0.1-5.2 0-7.8 0-1.8-0.4-3.4-1.2-5-1.9-3.6-5.4-5.2-8.9-6.7-0.2 0-0.4-0.1-0.6-0.2-0.1 0-0.2-0.1-0.4-0.1-1.2-0.6-2.3-1.1-3.4-1.5-4.2-1.4-8.3-2.6-12.8-2.4-1.7 0.1-3.4 0.5-5.1 0.7z"/>
	<path class="s1" d="m55.9 36.4c3.5 1.4 7 3 8.9 6.6 0.8 1.6 1.2 3.2 1.2 5 0.1 2.6 0 5.1 0 7.8-0.2 0.4-0.4 0.7-0.5 1q-0.9 2.8-3.5 4.3c-2.2 1.3-4.3 2.5-6.6 3.7-0.9 0.5-2 0.7-3 1-0.6 0.2-1.4 0.3-1.8-0.5 0.9-0.8 1.8-1.6 2.7-2.5 0.8-0.8 1.5-1.7 2.4-2.5 0.4-0.4 0.6-0.9 0.1-1.3-0.2-0.1-0.9 0.1-1.1 0.3-2.6 2.5-5.1 5-7.6 7.5-0.3 0.3-0.9 0.4-1.3 0.3-0.2 0-0.3-0.6-0.4-0.9 0-0.2 0.2-0.5 0.4-0.6 1.6-1.7 3.3-3.4 5-5.1 1.5-1.5 2.9-3 4.3-4.5 0.4-0.3 0.5-0.8 0.1-1.2-0.3-0.3-0.8-0.6-1.3-0.1-0.4 0.4-0.9 0.9-1.4 1.4q-6.6 6.6-13.3 13.3c-0.9 0.9-1.7 1-2.2 0.3-0.4-0.6-0.4-1.1 0.2-1.7q4.6-4.5 9.1-9.1c1-1 1.2-1.8 0.6-2.5-0.6-0.6-1.5-0.4-2.4 0.6-1.3 1.2-2.5 2.4-3.9 3.6-0.5-0.6-0.9-1.2-1.3-1.8q2.9-3 5.8-5.9 1.3-1.3 2.6-2.6c0.5-0.5 0.7-1 0.2-1.5-0.5-0.5-1.1-0.3-1.5 0.1q-4.2 4.2-8.4 8.4-1.2 1.3-2.5 2.5c-0.5 0.5-1 0.8-1.6 0.2-0.6-0.6-0.2-1 0.2-1.5q4.2-4.1 8.3-8.2c0.2-0.2 0.5-0.5 0.6-0.8 0.1-0.2-0.1-0.6-0.3-0.8-0.1-0.2-0.5-0.2-0.7-0.1-0.3 0.1-0.6 0.4-0.9 0.6-1.5 1.5-3 3-4.5 4.4-0.1-2-0.1-4-0.1-6 0.2-2.9 1.2-5.5 3.7-7.1 2.8-1.7 5.7-3.1 8.6-4.5 1.5-0.8 3.1-0.7 4.8-0.2 0.4 0.1 0.9 0.1 1.4 0.2 0.1 0 0.2 0.1 0.3 0.2 0.3 0.1 0.4 0.1 0.6 0.2zm-1.3 8.1c1.5-0.3 3-0.5 4.7-0.8-0.1 0.9-0.2 1.6-0.2 2.3-0.2 1.8-0.3 3.6-0.4 5.5-0.2 1.8-0.4 3.6-0.5 5.4-0.1 0.9 0.4 1.5 1.2 1.6 1 0 1.6-0.4 1.6-1.5 0.3-2.4 0.4-4.8 0.6-7.2q0.3-2.7 0.5-5.4c0.1-0.7 0.2-1.5 0.2-2.2 0.1-1.2-1-1.8-2.5-1.5-3 0.5-6.1 1-9.1 1.6q-3.1 0.5-6.2 1.1c-0.8 0.1-1.4 1-1.3 1.6 0.1 0.7 1.1 1.4 1.7 1.2 3.2-0.5 6.4-1.1 9.7-1.7zm-4.1 6.4q-1 1-2 2c-0.7 0.7-0.7 1.4-0.1 2.1 0.6 0.6 1.3 0.4 1.8-0.1 0.7-0.6 1.3-1.3 2-2 1.4-1.4 2.8-2.8 4.1-4.2 0.7-0.7 0.7-1.5 0.1-2-0.6-0.5-1.2-0.5-1.9 0.2-1.3 1.3-2.6 2.6-4 4z"/>
	<path class="s2" d="m54.9 36c-0.4-0.1-0.9-0.1-1.3-0.2-1.7-0.5-3.3-0.6-4.8 0.2-2.9 1.4-5.8 2.8-8.6 4.5-2.5 1.6-3.5 4.2-3.7 7.1 0 2 0 4 0.1 6-2.2 2.3-4.3 4.4-6.6 6.5-0.5 0.4-1.6 0.4-2.4 0.4-0.5-0.1-0.9-0.5-0.9-1.1 0.1-6.6 0-13.1 0.1-19.7 0-1.8 0.9-3.4 2.4-4.4 1.3-0.9 2.8-1.7 4.3-2.5 1.8-0.2 3.5-0.6 5.2-0.7 4.5-0.2 8.6 1 12.8 2.4 1.1 0.4 2.2 0.9 3.4 1.5z"/>
	<path class="s2" d="m50.5 65.4c0.5 0.7 1.3 0.6 1.9 0.4 1-0.3 2.1-0.5 3-1 2.3-1.2 4.4-2.4 6.6-3.7q2.6-1.5 3.5-4.3c0.1-0.3 0.3-0.6 0.5-0.9 0.2 4.4 0 8.8-2.2 12.8-0.5 0.9-1.1 1.7-1.7 2.5q-0.2 0.4-0.5 0.9c0 0.1 0 0.1 0 0.1q-0.2 0.1-0.3 0.3c0 0-0.1 0-0.1 0q0 0.1-0.1 0.2c-2.2 1.3-4.3 2.5-6.5 3.8-2.1 1.3-4.6 1.3-6.7-0.1-1.6-1-2.6-2.2-2.5-4.1 0.1-1.1 0.4-2.1 1.2-2.8q1.7-1.7 3.4-3.4c0.2-0.2 0.3-0.5 0.5-0.7z"/>
	<path class="s3" d="m39.2 58.8c0.5 0.6 0.9 1.2 1.4 1.9q-3.1 3.2-6.3 6.4c-0.5 0.4-1.1 0.4-1.6 0-0.6-0.5-0.6-1.2 0-1.8q2.3-2.3 4.7-4.6c0.6-0.6 1.2-1.2 1.8-1.9z"/>
	<path class="s0" d="m61.3 72.5q0.1-0.1 0.3-0.3-0.1 0.1-0.3 0.3z"/>
	<path class="s0" d="m61.2 72.7q-0.1-0.1 0-0.2 0.1 0.1 0 0.2z"/>
	<path class="s2" d="m55.9 36.3q-0.2 0-0.5-0.1 0.2 0 0.5 0.1z"/>
</svg>